<svg width="164" height="50" viewBox="0 0 164 50" fill="none" xmlns="http://www.w3.org/2000/svg">
<path d="M28.4133 15.7625C27.6271 14.6816 26.4282 13.8561 24.8756 13.2861C25.8386 12.7555 26.5855 12.0086 27.2144 11.1045C27.804 10.1808 28.0988 9.02119 28.0988 7.60609C28.0988 6.191 27.863 5.12968 27.3716 4.2649C26.8803 3.40012 26.1924 2.75154 25.2883 2.22088C24.4039 1.69022 23.3032 1.3561 22.065 1.15956C20.8072 0.963016 19.3921 0.864746 17.8394 0.864746H0.563477V28.577H18.9794C22.4385 28.577 25.1114 27.9481 26.9196 26.6902C28.7081 25.4323 29.6319 23.349 29.6319 20.4795C29.6319 17.61 29.2388 16.8435 28.4133 15.7232V15.7625ZM25.19 22.1894C25.0328 22.8184 24.6987 23.349 24.227 23.7814C23.7553 24.2138 23.1067 24.5479 22.2812 24.7641C21.4165 25 20.3355 25.0982 18.9794 25.0982H4.43533V4.34351H17.4267C18.5077 4.34351 19.4707 4.38283 20.2962 4.4811C21.0823 4.54006 21.7899 4.71694 22.3009 4.97245C22.8709 5.2083 23.2639 5.60138 23.5194 6.05342C23.8143 6.54477 23.9518 7.21301 23.9518 7.99917C23.9518 8.78534 23.8143 9.41427 23.5981 9.94493C23.3426 10.4756 22.9691 10.8687 22.4385 11.1635C21.9078 11.419 21.2592 11.6155 20.4338 11.7531C19.6476 11.8514 18.6452 11.8907 17.5053 11.8907H7.93376V15.3891H18.8614C20.2765 15.3891 21.3968 15.4874 22.2616 15.7232C23.1264 15.9198 23.7749 16.2539 24.2466 16.647C24.738 17.0794 25.0328 17.5707 25.2097 18.1603C25.3669 18.75 25.4455 19.4182 25.4455 20.1651C25.4455 20.9119 25.3866 21.5801 25.2097 22.1698L25.19 22.1894Z" fill="#3C44E3"/>
<path d="M57.1868 17.944C58.936 17.4134 60.2921 16.4896 61.2748 15.2121C62.2575 13.9346 62.7882 12.1854 62.8865 9.92515C62.8865 8.43144 62.6506 7.11463 62.1986 5.97469C61.7465 4.85441 61.0783 3.89135 60.2528 3.16415C59.4273 2.39764 58.4053 1.84733 57.2261 1.45425C56.0468 1.06117 54.7104 0.884277 53.2756 0.884277H34.8008V28.5965H38.653V18.4354H48.5193L46.5736 14.9763H38.653V4.36305H52.4108C54.5531 4.36305 56.1451 4.8151 57.1868 5.77815C58.2481 6.70189 58.7788 8.01871 58.7788 9.70896C58.7788 11.3992 58.2088 12.7357 57.0885 13.6398C55.9682 14.5242 54.2583 14.9959 51.9785 14.9959H51.0154L53.0201 18.455L53.9439 20.0667L58.7591 28.5376H63.3189L57.1868 17.944Z" fill="#3C44E3"/>
<path d="M98.264 8.03852C97.4779 6.25 96.3576 4.73663 94.9228 3.55739C93.5077 2.37814 91.8175 1.47406 89.911 0.884434C87.9653 0.294811 85.7837 0 83.4448 0C81.106 0 78.8851 0.294816 76.9393 0.864784C75.0329 1.43475 73.3426 2.31918 71.9276 3.47877C70.5125 4.65802 69.4118 6.15173 68.5864 7.9599C67.8002 9.80739 67.3285 11.9497 67.2695 14.4654V15.1926C67.3285 17.6297 67.8002 19.772 68.5864 21.5605C69.4118 23.3491 70.4928 24.8231 71.9276 26.022C73.3426 27.2013 75.0329 28.066 76.9393 28.636C78.8851 29.206 81.0667 29.5008 83.4448 29.5008C85.823 29.5008 87.9653 29.206 89.911 28.636C91.8175 28.066 93.5077 27.2209 94.9228 26.0613C96.3379 24.8821 97.4582 23.3884 98.264 21.5998C99.0502 19.7917 99.5219 17.6494 99.5808 15.1926V14.4654C99.5219 12.0283 99.0502 9.886 98.264 8.05817V8.03852ZM94.628 19.6541C94.0384 21.0299 93.2522 22.1895 92.1909 23.1525C91.1689 24.0762 89.8914 24.7641 88.3977 25.2555C86.904 25.7075 85.2727 25.9434 83.4448 25.9434C81.617 25.9434 79.9464 25.7075 78.4724 25.2162C76.9786 24.7248 75.7011 24.0369 74.6791 23.0739C73.6178 22.1502 72.8316 20.9906 72.2617 19.6148C71.672 18.239 71.3969 16.6077 71.3969 14.7995C71.3969 12.9914 71.6524 11.2421 72.2617 9.82704C72.8316 8.45125 73.6178 7.25236 74.6791 6.32862C75.7011 5.36557 76.9786 4.67767 78.4724 4.18632C79.9661 3.73428 81.5974 3.49843 83.4448 3.49843C85.2923 3.49843 86.904 3.73428 88.3977 4.26494C89.8914 4.75629 91.1689 5.48349 92.1909 6.44654C93.2522 7.40959 94.0384 8.58884 94.628 10.0039C95.198 11.3797 95.4535 13.011 95.4535 14.8192C95.4535 16.6274 95.198 18.2783 94.628 19.6737V19.6541Z" fill="#3C44E3"/>
<path d="M128.511 14.8781C127.431 14.2885 125.996 13.8168 124.286 13.522C122.576 13.2272 120.493 12.9913 118.075 12.8538C116.326 12.7555 114.813 12.6179 113.515 12.4607C112.238 12.2641 111.177 12.0283 110.39 11.6942C109.565 11.3601 108.975 10.9277 108.582 10.3774C108.189 9.84669 108.012 9.1588 108.012 8.33333C108.012 7.50786 108.248 6.78065 108.739 6.19103C109.231 5.60141 109.919 5.11006 110.784 4.73663C111.668 4.34355 112.729 4.04874 113.948 3.87185C115.166 3.67531 116.562 3.57704 118.075 3.57704C119.589 3.57704 120.591 3.71462 121.711 3.91116C122.831 4.1077 123.795 4.48113 124.62 4.97248C125.445 5.50314 126.133 6.15172 126.625 6.97719C127.116 7.80266 127.411 8.86399 127.509 10.0825H131.695C131.597 8.92295 131.361 7.74371 130.929 6.54481C130.536 5.36556 129.848 4.30424 128.846 3.34119C127.824 2.37814 126.507 1.63128 124.797 1.00235C123.107 0.412731 120.905 0.11792 118.173 0.11792C115.442 0.11792 113.496 0.353769 111.668 0.805813C109.879 1.25786 108.405 1.88679 107.285 2.6533C106.125 3.43946 105.28 4.34355 104.75 5.36556C104.219 6.42688 103.964 7.46855 103.964 8.62814C103.964 9.78773 104.219 11.3994 104.75 12.3624C105.28 13.2862 106.106 14.0527 107.226 14.603C108.307 15.1729 109.742 15.566 111.452 15.7822C113.142 16.0181 115.147 16.1753 117.486 16.2343C120.984 16.4701 123.559 16.9222 125.229 17.6101C126.88 18.3373 127.706 19.5165 127.666 21.1674C127.627 22.8577 126.703 24.0369 124.836 24.8034C122.989 25.57 120.453 25.9237 117.21 25.9237C113.967 25.9237 111.727 25.3538 110.076 24.1745C108.425 22.9953 107.501 21.3443 107.344 19.202H103.158C103.256 20.3813 103.551 21.5409 103.983 22.7594C104.416 23.9387 105.143 25.0393 106.165 26.022C107.187 27.0047 108.582 27.8302 110.312 28.4591C112.061 29.088 114.341 29.4222 117.112 29.4222C119.883 29.4222 122.183 29.2256 124.03 28.7932C125.917 28.3608 127.391 27.7712 128.511 27.0047C129.671 26.2775 130.457 25.3538 130.949 24.3317C131.44 23.2704 131.676 22.1501 131.676 20.8923C131.676 19.6344 131.44 18.18 130.909 17.1973C130.418 16.2343 129.592 15.4481 128.472 14.8192L128.511 14.8781Z" fill="#3C44E3"/>
<path d="M134.879 0.884277V4.3434H163.437V0.884277H134.879ZM147.203 28.5965H151.055V7.82217H147.203V28.5965Z" fill="#3C44E3"/>
<path d="M22.0255 39.7011C21.7307 39.4259 21.3769 39.2294 20.9445 39.0721C20.5318 38.9346 20.0601 38.856 19.5491 38.856C19.0381 38.856 18.5664 38.9149 18.1536 39.0525C17.7409 39.1901 17.3675 39.3866 17.0727 39.6421C16.7779 39.8976 16.542 40.2317 16.3848 40.6445C16.2275 41.0376 16.1489 41.5093 16.1489 42.0399C16.1489 42.5706 16.2275 43.003 16.3848 43.396C16.542 43.7891 16.7779 44.1232 17.0727 44.3787C17.3675 44.6343 17.7213 44.8505 18.1536 44.988C18.5664 45.1256 19.0381 45.2042 19.5491 45.2042C20.0601 45.2042 20.5318 45.1453 20.9445 45.0077C21.3573 44.8701 21.7307 44.6736 22.0255 44.4181C22.3203 44.1626 22.5562 43.8284 22.7134 43.4354C22.8706 43.0423 22.9492 42.5902 22.9492 42.0596C22.9492 41.5289 22.8706 41.0965 22.7134 40.7034C22.5562 40.3104 22.3203 39.9762 22.0255 39.7011Z" fill="#3C44E3"/>
<path d="M112.081 39.7011C111.786 39.4259 111.432 39.2294 111 39.0721C110.587 38.9346 110.115 38.856 109.604 38.856C109.093 38.856 108.622 38.9149 108.209 39.0525C107.796 39.1901 107.423 39.3866 107.128 39.6421C106.833 39.8976 106.597 40.2317 106.44 40.6445C106.283 41.0376 106.204 41.5093 106.204 42.0399C106.204 42.5706 106.283 43.003 106.44 43.396C106.597 43.7891 106.833 44.1232 107.128 44.3787C107.423 44.6343 107.776 44.8505 108.209 44.988C108.622 45.1256 109.093 45.2042 109.604 45.2042C110.115 45.2042 110.587 45.1453 111 45.0077C111.412 44.8701 111.786 44.6736 112.081 44.4181C112.375 44.1626 112.611 43.8284 112.769 43.4354C112.926 43.0423 113.004 42.5902 113.004 42.0596C113.004 41.5289 112.926 41.0965 112.769 40.7034C112.611 40.3104 112.375 39.9762 112.081 39.7011Z" fill="#3C44E3"/>
<path d="M62.6703 40.6249C62.6703 40.1532 62.513 39.7798 62.2182 39.5047C61.9234 39.2492 61.4714 39.1116 60.8621 39.1116H56.9902V42.099H60.7442C61.3927 42.099 61.8644 41.9811 62.1986 41.7256C62.513 41.4701 62.6703 41.0966 62.6703 40.6249Z" fill="#3C44E3"/>
<path d="M157.108 39.7995C156.853 39.5636 156.499 39.4064 156.086 39.2885C155.674 39.1902 155.163 39.1312 154.553 39.1116H152.116V44.9685H154.691C155.359 44.9685 155.909 44.8899 156.342 44.7523C156.774 44.6147 157.089 44.3985 157.305 44.143C157.541 43.8875 157.678 43.5534 157.757 43.18C157.836 42.8065 157.875 42.3742 157.875 41.9025C157.875 41.4308 157.816 40.9984 157.698 40.6446C157.58 40.2908 157.384 40.0157 157.128 39.7798L157.108 39.7995Z" fill="#3C44E3"/>
<path d="M4.88736 34.1587C2.72541 34.1587 0.956543 35.9079 0.956543 38.0895V49.9999H159.152C161.314 49.9999 163.083 48.231 163.083 46.0691V34.1587H4.88736ZM11.9039 45.5384C11.157 45.9905 10.2136 46.2067 9.07368 46.2067C7.93374 46.2067 7.75685 46.1084 7.20654 45.9315C6.65623 45.7546 6.18453 45.4795 5.8111 45.1257C5.43767 44.7719 5.14286 44.3592 4.94632 43.8482C4.74978 43.3568 4.65151 42.7868 4.65151 42.1579V41.9614C4.65151 41.3128 4.74978 40.7428 4.94632 40.2318C5.14286 39.7208 5.43767 39.3081 5.8111 38.9543C6.18453 38.6005 6.65623 38.345 7.20654 38.1681C7.75685 37.9912 8.38579 37.893 9.07368 37.893C9.76157 37.893 10.2136 37.9519 10.705 38.0699C11.1963 38.1878 11.6091 38.3647 11.9825 38.6202C12.3363 38.856 12.6311 39.1705 12.8669 39.5243C13.1028 39.8977 13.26 40.3104 13.319 40.8018H12.1201C12.0414 40.507 11.9235 40.2515 11.7466 39.996C11.5697 39.7601 11.3536 39.5439 11.098 39.367C10.8425 39.1901 10.5477 39.0526 10.2136 38.9739C9.8795 38.8757 9.50607 38.8364 9.09333 38.8364C8.6806 38.8364 8.07132 38.915 7.65858 39.0722C7.24585 39.2294 6.91173 39.4456 6.63657 39.7405C6.36142 40.0156 6.14522 40.3694 6.00764 40.7625C5.87006 41.1556 5.79145 41.6076 5.79145 42.0793C5.79145 42.551 5.85041 42.9637 6.00764 43.3371C6.14522 43.7302 6.36142 44.0644 6.63657 44.3395C6.91173 44.6147 7.24585 44.8505 7.65858 45.0077C8.07132 45.165 8.54302 45.2436 9.09333 45.2436C9.9188 45.2436 10.6067 45.0864 11.1374 44.7719C11.668 44.4574 12.0218 44.0251 12.179 43.4551H13.3583C13.1421 44.3985 12.6704 45.0864 11.9235 45.5188L11.9039 45.5384ZM24.1091 42.1776C24.0894 42.8655 23.9715 43.4747 23.7356 43.9857C23.4998 44.4967 23.205 44.9095 22.7922 45.2436C22.3991 45.5777 21.9274 45.8136 21.3771 45.9708C20.8268 46.128 20.2175 46.2067 19.5493 46.2067C18.8811 46.2067 18.2718 46.128 17.7215 45.9708C17.1712 45.8136 16.6995 45.5581 16.3064 45.2239C15.9133 44.8898 15.5988 44.4771 15.363 43.9661C15.1271 43.4551 15.0092 42.8655 14.9896 42.1579V41.9614C15.0092 41.2538 15.1271 40.6445 15.363 40.1335C15.5988 39.6225 15.8936 39.1901 16.3064 38.856C16.6995 38.5219 17.1712 38.2861 17.7215 38.1092C18.2718 37.9323 18.8811 37.8733 19.5493 37.8733C20.2175 37.8733 20.8268 37.9519 21.3771 38.1288C21.9274 38.3057 22.3991 38.5416 22.7922 38.8757C23.1853 39.2098 23.4998 39.6422 23.7356 40.1532C23.9715 40.6642 24.0894 41.2735 24.1091 41.9614V42.1579V42.1776ZM34.1916 45.9511H32.2655L27.2144 38.856V45.9511H26.1138V38.1288H28.0202L33.091 45.2239V38.1288H34.1719V45.9511H34.1916ZM37.8473 40.8214C37.9455 40.9787 38.1224 41.0966 38.3583 41.1949C38.5941 41.2931 38.8889 41.3521 39.2427 41.4111C39.5965 41.4504 40.0289 41.4897 40.5202 41.529C41.2081 41.5683 41.7977 41.6272 42.2694 41.7059C42.7608 41.7845 43.1539 41.9221 43.4683 42.0989C43.7828 42.2758 44.0186 42.492 44.1562 42.7672C44.2938 43.0423 44.3724 43.3961 44.3724 43.8089C44.3724 44.2216 44.2938 44.4771 44.1562 44.7719C44.0186 45.0667 43.7828 45.3222 43.4683 45.5384C43.1539 45.7546 42.7215 45.9118 42.1908 46.0298C41.6601 46.1477 41.0116 46.2067 40.2254 46.2067C39.4392 46.2067 38.8103 46.1084 38.319 45.9315C37.8276 45.7546 37.4345 45.5188 37.1397 45.2436C36.8449 44.9684 36.6484 44.654 36.5304 44.3199C36.4125 43.9857 36.3339 43.6516 36.2946 43.3175H37.4738C37.5131 43.9268 37.7686 44.3788 38.2403 44.7129C38.712 45.0471 39.3803 45.2043 40.2647 45.2043C41.1491 45.2043 41.896 45.106 42.407 44.8898C42.918 44.6736 43.1932 44.3395 43.2128 43.8678C43.2128 43.3961 42.9966 43.062 42.5249 42.8655C42.0532 42.6689 41.326 42.5313 40.3433 42.4724C39.6947 42.4527 39.1248 42.4134 38.6334 42.3348C38.1421 42.2562 37.749 42.1579 37.4345 42.0007C37.1201 41.8434 36.8842 41.6272 36.7466 41.3717C36.5894 41.0966 36.5304 40.7625 36.5304 40.3301C36.5304 39.8977 36.609 39.7011 36.7466 39.4063C36.9039 39.1115 37.1397 38.856 37.4542 38.6398C37.7686 38.4236 38.201 38.2467 38.6924 38.1092C39.2034 37.9716 39.8127 37.9126 40.5202 37.9126C41.2278 37.9126 41.9156 37.9912 42.3873 38.1681C42.859 38.345 43.2521 38.5612 43.5273 38.8364C43.8024 39.1115 43.999 39.4063 44.1169 39.7405C44.2348 40.0746 44.3134 40.4087 44.3331 40.7428H43.1539C43.1145 40.389 43.0359 40.0942 42.8984 39.8584C42.7608 39.6225 42.5642 39.426 42.3284 39.2884C42.0925 39.1508 41.8174 39.0526 41.5029 38.9936C41.1884 38.9346 40.8543 38.8953 40.4809 38.8953C40.1075 38.8953 39.6751 38.915 39.3213 38.9739C38.9675 39.0329 38.6727 39.1115 38.4369 39.2098C38.1814 39.3081 37.9848 39.4653 37.8473 39.6225C37.7097 39.7994 37.6311 39.996 37.6311 40.2318C37.6311 40.4677 37.69 40.6642 37.7883 40.8018L37.8473 40.8214ZM54.0029 39.1115H50.5241V45.9511H49.4235V39.1115H45.9447V38.1288H54.0029V39.1115ZM62.6704 45.9511L61.0587 43.1013H57.01V45.9511H55.9094V38.1288H61.1177C61.5304 38.1288 61.9038 38.1878 62.238 38.286C62.5721 38.3843 62.8669 38.5612 63.0831 38.7578C63.2993 38.9543 63.4958 39.2294 63.6334 39.5636C63.771 39.878 63.8299 40.2515 63.8299 40.6838C63.8103 41.3128 63.6531 41.8041 63.3779 42.1776C63.1027 42.551 62.7097 42.8065 62.2183 42.9441L63.9479 45.9315H62.6704V45.9511ZM73.716 42.8065C73.6766 43.9661 73.3229 44.8309 72.6939 45.3615C72.065 45.8922 71.1216 46.1673 69.8834 46.1673C68.6452 46.1673 67.7018 45.8922 67.0729 45.3419C66.4439 44.7916 66.0902 43.9464 66.0705 42.7868V38.1092H67.1711V42.2562C67.1711 42.6886 67.2104 43.062 67.2694 43.4354C67.3284 43.7892 67.4463 44.1037 67.6428 44.3592C67.8394 44.6147 68.0949 44.8112 68.4487 44.9488C68.8024 45.0864 69.2741 45.165 69.8834 45.165C70.4927 45.165 70.9644 45.106 71.3378 44.9488C71.6916 44.8112 71.9667 44.6147 72.1633 44.3592C72.3598 44.1037 72.4777 43.8089 72.5367 43.4551C72.5957 43.1013 72.635 42.7082 72.635 42.2758V38.0895H73.7356V42.7672L73.716 42.8065ZM83.0123 45.5384C82.2655 45.9905 81.3221 46.2067 80.1821 46.2067C79.0422 46.2067 78.8653 46.1084 78.315 45.9315C77.7647 45.7546 77.293 45.4795 76.9196 45.1257C76.5461 44.7719 76.2513 44.3592 76.0548 43.8482C75.8583 43.3568 75.76 42.7868 75.76 42.1579V41.9614C75.76 41.3128 75.8583 40.7428 76.0548 40.2318C76.2513 39.7208 76.5461 39.3081 76.9196 38.9543C77.293 38.6005 77.7647 38.345 78.315 38.1681C78.8653 37.9912 79.4943 37.893 80.1821 37.893C80.87 37.893 81.3221 37.9519 81.8134 38.0699C82.3048 38.1878 82.7175 38.3647 83.091 38.6202C83.4447 38.856 83.7395 39.1705 83.9754 39.5243C84.2112 39.8977 84.3685 40.3104 84.4274 40.8018H83.2285C83.1499 40.507 83.032 40.2515 82.8551 39.996C82.6782 39.7601 82.462 39.5439 82.2065 39.367C81.951 39.1901 81.6562 39.0526 81.3221 38.9739C80.988 38.8757 80.6145 38.8364 80.2018 38.8364C79.7891 38.8364 79.1798 38.915 78.7671 39.0722C78.3543 39.2294 78.0202 39.4456 77.745 39.7405C77.4699 40.0156 77.2537 40.3694 77.1161 40.7625C76.9785 41.1556 76.8999 41.6076 76.8999 42.0793C76.8999 42.551 76.9589 42.9637 77.1161 43.3371C77.2537 43.7302 77.4699 44.0644 77.745 44.3395C78.0202 44.6147 78.3543 44.8505 78.7671 45.0077C79.1798 45.165 79.6515 45.2436 80.2018 45.2436C81.0273 45.2436 81.7152 45.0864 82.2458 44.7719C82.7765 44.4574 83.1303 44.0251 83.2875 43.4551H84.4667C84.2505 44.3985 83.7788 45.0864 83.032 45.5188L83.0123 45.5384ZM94.0579 39.1115H90.5791V45.9511H89.4785V39.1115H85.9997V38.1288H94.0579V39.1115ZM103.158 39.1115H100.072V44.9684H103.158V45.9511H95.9447V44.9684H98.9714V39.1115H95.9447V38.1288H103.158V39.1115ZM114.184 42.1776C114.164 42.8655 114.046 43.4747 113.81 43.9857C113.574 44.4967 113.28 44.9095 112.867 45.2436C112.474 45.5777 112.002 45.8136 111.452 45.9708C110.901 46.128 110.292 46.2067 109.624 46.2067C108.956 46.2067 108.346 46.128 107.796 45.9708C107.246 45.8136 106.774 45.5581 106.381 45.2239C105.988 44.8898 105.674 44.4771 105.438 43.9661C105.202 43.4551 105.084 42.8655 105.064 42.1579V41.9614C105.084 41.2538 105.202 40.6445 105.438 40.1335C105.674 39.6225 105.968 39.1901 106.381 38.856C106.774 38.5219 107.246 38.2861 107.796 38.1092C108.346 37.9323 108.956 37.8733 109.624 37.8733C110.292 37.8733 110.901 37.9519 111.452 38.1288C112.002 38.3057 112.474 38.5416 112.867 38.8757C113.26 39.2098 113.574 39.6422 113.81 40.1532C114.046 40.6642 114.164 41.2735 114.184 41.9614V42.1579V42.1776ZM124.247 45.9511H122.32L117.269 38.856V45.9511H116.169V38.1288H118.075L123.146 45.2239V38.1288H124.227V45.9511H124.247ZM139.596 45.9511H132.953V38.1288H134.054V44.9684H139.596V45.9511ZM149.109 39.1115H145.63V45.9511H144.53V39.1115H141.051V38.1288H149.109V39.1115ZM159.015 41.8434C159.015 42.5903 158.936 43.2192 158.759 43.7499C158.582 44.2806 158.327 44.6933 157.993 45.0274C157.659 45.3615 157.246 45.5974 156.754 45.7546C156.263 45.9118 155.693 45.9905 155.064 45.9905H151.015V38.1681H154.494C154.848 38.1681 155.202 38.1681 155.556 38.2074C155.909 38.2467 156.263 38.3057 156.597 38.3843C156.931 38.4826 157.246 38.6005 157.541 38.7578C157.835 38.915 158.091 39.1312 158.307 39.4063C158.523 39.6815 158.7 39.996 158.818 40.389C158.936 40.7821 159.015 41.2538 159.015 41.7845V41.8434Z" fill="#3C44E3"/>
</svg>
