<svg width="24" height="24" viewBox="0 0 24 24" fill="none" xmlns="http://www.w3.org/2000/svg">
<path d="M21.112 4.20794C19.232 1.98394 16.824 0.647943 13.952 0.151943C13.552 0.0799434 13.152 0.0479434 12.752 -0.00805664H11.256C10.816 0.0559434 10.376 0.0959434 9.936 0.175943C7.408 0.615943 5.248 1.75994 3.456 3.57594C1.68 5.38394 0.584 7.54394 0.16 10.0399C0.088 10.4399 0.056 10.8399 0 11.2399V12.7359C0.064 13.1839 0.104 13.6319 0.184 14.0799C0.68 16.8239 1.984 19.1279 4.072 20.9839C5.88 22.5919 8 23.5759 10.4 23.8799C13.648 24.2959 16.608 23.5359 19.216 21.5519C21.76 19.6239 23.328 17.0639 23.832 13.9119C24.408 10.2799 23.488 7.01594 21.112 4.20794ZM18.088 17.4399C17.336 17.4399 16.584 17.4399 15.84 17.4399C14.56 17.4399 13.28 17.4399 12 17.4399C11.56 17.4399 11.12 17.4399 10.68 17.4399C10.24 17.4399 9.8 17.4399 9.36 17.4399C8.216 17.4399 7.072 17.4399 5.936 17.4559C4.912 17.4719 4.248 16.7119 4.256 15.7759C4.28 13.2239 4.264 10.6719 4.264 8.11194C4.264 7.35194 4.696 6.76794 5.408 6.59194C5.56 6.55194 5.72 6.54394 5.872 6.54394C9.96 6.54394 14.04 6.54394 18.128 6.54394C19.112 6.54394 19.736 7.17594 19.736 8.15994C19.736 10.7119 19.736 13.2639 19.736 15.8239C19.728 16.8239 19.112 17.4399 18.088 17.4399Z" fill="#3C44E3"/>
<path d="M18.488 8.67189C18.488 11.0399 18.488 13.4079 18.488 15.7679C18.488 16.1359 18.424 16.1999 18.048 16.1999H5.93596C5.58396 16.1999 5.51196 16.1359 5.51196 15.7999C5.51196 13.4079 5.51196 11.0159 5.51196 8.63189C5.51196 8.57589 5.51996 8.51189 5.52796 8.41589C5.94396 8.74389 6.33596 9.05589 6.71996 9.35989C8.31996 10.6319 9.91996 11.9039 11.528 13.1759C11.872 13.4479 12.128 13.4479 12.472 13.1679C14.368 11.6639 16.264 10.1599 18.16 8.65589C18.248 8.58389 18.344 8.51189 18.472 8.41589C18.48 8.52789 18.488 8.59989 18.488 8.67189Z" fill="#3C44E3"/>
<path d="M17.264 7.83994C17.208 7.87194 17.144 7.89594 17.088 7.93594C15.448 9.23194 13.808 10.5359 12.168 11.8399C12.048 11.9359 11.968 11.9599 11.832 11.8479C10.184 10.5279 8.53602 9.22394 6.88002 7.91194C6.84002 7.87994 6.80802 7.83994 6.74402 7.78394H17.2C17.224 7.79994 17.24 7.82394 17.264 7.83994Z" fill="#3C44E3"/>
</svg>
