<svg width="14" height="8" viewBox="0 0 14 8" fill="none" xmlns="http://www.w3.org/2000/svg">
<path fill-rule="evenodd" clip-rule="evenodd" d="M13.3432 4.00006C13.3432 3.74385 13.1956 3.58018 12.9004 3.25285C11.8563 2.0952 9.60678 6.10352e-05 7.00001 6.10352e-05C4.39324 6.10352e-05 2.14368 2.0952 1.09966 3.25285C0.804462 3.58018 0.65686 3.74385 0.65686 4.00006C0.65686 4.25627 0.804462 4.41994 1.09966 4.74727C2.14368 5.90492 4.39324 8.00006 7.00001 8.00006C9.60678 8.00006 11.8563 5.90492 12.9004 4.74727C13.1956 4.41994 13.3432 4.25627 13.3432 4.00006ZM7.00001 6.00006C8.20063 6.00006 9.17392 5.10463 9.17392 4.00006C9.17392 2.89549 8.20063 2.00006 7.00001 2.00006C5.79939 2.00006 4.8261 2.89549 4.8261 4.00006C4.8261 5.10463 5.79939 6.00006 7.00001 6.00006Z" fill="white"/>
</svg>
