<svg width="262" height="80" viewBox="0 0 262 80" fill="none" xmlns="http://www.w3.org/2000/svg">
<g clip-path="url(#clip0_19_4)">
<path d="M45.3252 25.2256C44.0588 23.4837 42.1609 22.1663 39.6816 21.2671C41.2119 20.4245 42.4248 19.2077 43.4272 17.7834C44.3762 16.3056 44.8507 14.46 44.8507 12.1899C44.8507 9.91984 44.483 8.23142 43.6912 6.86057C42.8993 5.48971 41.7932 4.43328 40.3698 3.5875C38.9463 2.74172 37.2055 2.21664 35.2007 1.89908C33.1959 1.58152 30.9303 1.42432 28.451 1.42432H0.81134V45.7538H30.239C35.7757 45.7538 40.0493 44.7508 42.9496 42.7449C45.7965 40.7389 47.2734 37.4155 47.2734 32.825C47.2734 29.5017 46.6418 27.0209 45.322 25.2256H45.3252ZM40.1561 35.5164C39.8921 36.5194 39.3642 37.3621 38.6258 38.0506C37.8874 38.7392 36.8315 39.2643 35.5149 39.6321C34.1449 40 32.404 40.1604 30.2421 40.1604H6.98282V6.96433H27.7629C29.5037 6.96433 31.034 7.01778 32.3506 7.17498C33.617 7.28189 34.7231 7.54285 35.5683 7.96731C36.4639 8.33518 37.0986 8.9703 37.5197 9.70918C37.9942 10.5015 38.2047 11.5548 38.2047 12.8219C38.2047 14.089 37.9942 15.092 37.6234 15.9346C37.2023 16.7804 36.621 17.4124 35.7789 17.8871C34.9367 18.3085 33.8809 18.626 32.5612 18.8367C31.2948 18.9939 29.7142 19.0473 27.8666 19.0473H12.573V24.6408H30.0285C32.2972 24.6408 34.0883 24.798 35.4615 25.169C36.8315 25.4866 37.8874 26.0148 38.6258 26.6468C39.4177 27.3322 39.8921 28.1245 40.1561 29.0741C40.42 30.0236 40.5237 31.08 40.5237 32.2937C40.5237 33.5073 40.4169 34.5638 40.1561 35.5133V35.5164Z" fill="#3C44E3"/>
<path d="M91.3128 28.7062C94.1094 27.8604 96.2713 26.3858 97.8519 24.3264C99.4325 22.267 100.278 19.4718 100.435 15.8843C100.435 13.5105 100.067 11.3976 99.3288 9.55197C98.5903 7.75665 97.5345 6.22859 96.2179 5.06525C94.8981 3.85161 93.2641 2.95552 91.3662 2.3204C89.4682 1.68528 87.3566 1.42432 85.0376 1.42432H55.5031V45.7538H61.6746V29.5017H77.4426L74.3318 23.9617H61.6746V6.96433H83.6675C87.0958 6.96433 89.6285 7.7032 91.3159 9.23441C93.0033 10.7122 93.8486 12.8219 93.8486 15.5133C93.8486 18.2047 92.953 20.3679 91.1588 21.7922C89.3645 23.2165 86.6245 23.9554 82.9857 23.9554H81.4554L84.6731 29.4954L86.15 32.0799L93.8486 45.6406H101.126L91.3159 28.6999L91.3128 28.7062Z" fill="#3C44E3"/>
<path d="M156.974 12.8753C155.708 10.0267 153.917 7.59943 151.648 5.69722C149.379 3.79815 146.69 2.37384 143.632 1.4243C140.521 0.474768 137.04 0 133.294 0C129.548 0 126.016 0.474768 122.905 1.37085C119.848 2.26694 117.158 3.69124 114.889 5.54001C112.621 7.43908 110.883 9.81292 109.563 12.7181C108.297 15.6736 107.558 19.1039 107.455 23.1127V24.2729C107.562 28.178 108.297 31.6082 109.563 34.4568C110.883 37.3055 112.621 39.6824 114.889 41.5815C117.158 43.4806 119.848 44.8546 122.905 45.7507C126.016 46.6468 129.498 47.1215 133.294 47.1215C137.09 47.1215 140.518 46.6468 143.632 45.7507C146.69 44.8546 149.379 43.4806 151.648 41.635C153.917 39.7359 155.708 37.362 156.974 34.5103C158.241 31.6082 158.979 28.178 159.083 24.2729V23.1127C158.979 19.2077 158.241 15.7774 156.974 12.8753ZM151.174 31.451C150.225 33.6677 148.958 35.5133 147.271 37.0445C145.637 38.5222 143.579 39.629 141.206 40.4213C138.834 41.1602 136.197 41.5281 133.294 41.5281C130.39 41.5281 127.704 41.1602 125.331 40.3679C122.959 39.5755 120.901 38.4688 119.267 36.9376C117.579 35.4598 116.313 33.6142 115.417 31.3976C114.468 29.1809 114.047 26.5964 114.047 23.6944C114.047 20.6351 114.468 17.994 115.417 15.7271C116.313 13.5105 117.579 11.6114 119.267 10.1336C120.901 8.60242 122.959 7.49568 125.331 6.70335C127.704 5.96447 130.34 5.5966 133.294 5.5966C136.248 5.5966 138.831 5.96447 141.206 6.81025C143.579 7.60258 145.637 8.76277 147.271 10.294C148.958 11.8252 150.225 13.7243 151.174 15.9943C152.069 18.211 152.493 20.7955 152.493 23.6975C152.493 26.5996 152.072 29.2375 151.174 31.4542V31.451Z" fill="#3C44E3"/>
<path d="M205.337 23.7982C203.597 22.8486 201.328 22.1097 198.588 21.635C195.845 21.1602 192.523 20.7923 188.674 20.5785C185.877 20.4213 183.451 20.2107 181.396 19.9466C179.338 19.629 177.651 19.2611 176.387 18.7329C175.068 18.2047 174.119 17.5193 173.487 16.6232C172.855 15.7805 172.592 14.6707 172.592 13.3501C172.592 12.0296 172.959 10.8694 173.751 9.91983C174.543 8.97029 175.649 8.17796 177.022 7.59944C178.446 6.96746 180.133 6.49269 182.084 6.22858C184.036 5.91102 186.251 5.75382 188.677 5.75382C190.785 5.75382 192.683 5.96447 194.478 6.28203C196.272 6.59959 197.799 7.17812 199.119 7.97045C200.439 8.81623 201.545 9.86952 202.337 11.1901C203.128 12.5106 203.603 14.199 203.76 16.1516H210.459C210.302 14.3059 209.931 12.4037 209.246 10.5046C208.615 8.60557 207.506 6.91715 205.925 5.38595C204.291 3.85474 202.179 2.6411 199.439 1.63811C196.75 0.688574 193.218 0.213806 188.837 0.213806C184.777 0.213806 181.349 0.581673 178.449 1.32055C175.602 2.05943 173.226 3.06242 171.435 4.27606C169.591 5.54316 168.217 6.96746 167.375 8.60242C166.533 10.2908 166.109 11.9793 166.109 13.828C166.109 16.2553 166.53 18.2613 167.375 19.7925C168.221 21.2702 169.537 22.4839 171.331 23.38C173.072 24.2761 175.341 24.9112 178.081 25.279C180.771 25.6469 183.989 25.911 187.731 26.0179C193.321 26.3858 197.435 27.1247 200.124 28.2346C202.761 29.3948 204.081 31.2938 204.027 33.9349C203.974 36.6263 202.497 38.5254 199.493 39.739C196.539 40.9527 192.479 41.5344 187.31 41.5344C182.141 41.5344 178.556 40.6383 175.919 38.7361C173.283 36.837 171.806 34.199 171.542 30.7688H164.843C165 32.6678 165.474 34.5166 166.162 36.4691C166.847 38.3682 168.007 40.1101 169.644 41.6947C171.281 43.2794 173.493 44.5968 176.29 45.5998C179.087 46.6027 182.725 47.131 187.153 47.131C191.58 47.131 195.276 46.8134 198.23 46.128C201.237 45.4426 203.609 44.493 205.403 43.2794C207.248 42.1192 208.514 40.6414 209.306 39.0065C210.098 37.318 210.466 35.5227 210.466 33.5199C210.466 31.1461 210.098 29.1935 209.253 27.6089C208.461 26.0777 207.144 24.8106 205.35 23.8107L205.337 23.7982Z" fill="#3C44E3"/>
<path d="M215.515 1.42432V6.96433H261.189V1.42432H215.515ZM235.24 45.7538H241.411V12.5075H235.24V45.7538Z" fill="#3C44E3"/>
<path d="M173.654 63.5561C173.176 63.119 172.601 62.7857 171.922 62.5562C171.25 62.3267 170.492 62.2135 169.666 62.2135C168.84 62.2135 168.089 62.3204 167.41 62.5373C166.731 62.7543 166.156 63.075 165.678 63.4995C165.207 63.9271 164.843 64.4616 164.582 65.103C164.327 65.7444 164.192 66.499 164.192 67.3636C164.192 68.2283 164.324 68.92 164.582 69.552C164.843 70.1808 165.207 70.7122 165.678 71.1366C166.156 71.5611 166.731 71.8881 167.41 72.1082C168.089 72.3314 168.84 72.4415 169.666 72.4415C170.492 72.4415 171.25 72.3346 171.922 72.1176C172.601 71.9007 173.176 71.58 173.654 71.1523C174.125 70.7279 174.496 70.1997 174.75 69.5677C175.011 68.9389 175.14 68.2031 175.14 67.3636C175.14 66.5241 175.011 65.801 174.75 65.1659C174.496 64.5276 174.125 63.9931 173.654 63.5529V63.5561Z" fill="#3C44E3"/>
<path d="M251.576 63.7038C251.152 63.336 250.602 63.0656 249.924 62.8926C249.245 62.7197 248.418 62.6285 247.444 62.6159H243.507V72.0516H247.661C248.751 72.0516 249.638 71.9352 250.307 71.7088C250.979 71.4793 251.501 71.1523 251.866 70.7279C252.23 70.3034 252.475 69.7846 252.604 69.1778C252.733 68.5741 252.796 67.8918 252.796 67.1341C252.796 66.3764 252.698 65.6658 252.507 65.0998C252.315 64.537 252.004 64.0717 251.576 63.7038Z" fill="#3C44E3"/>
<path d="M36.5047 63.5561C36.0271 63.119 35.4521 62.7857 34.7733 62.5562C34.1009 62.3267 33.3436 62.2135 32.5172 62.2135C31.6907 62.2135 30.9397 62.3204 30.261 62.5373C29.5823 62.7543 29.0072 63.075 28.5296 63.4995C28.0582 63.9271 27.6937 64.4616 27.4329 65.103C27.1784 65.7444 27.0433 66.499 27.0433 67.3636C27.0433 68.2283 27.1752 68.92 27.4329 69.552C27.6937 70.1808 28.0582 70.7122 28.5296 71.1366C29.0072 71.5611 29.5823 71.8881 30.261 72.1082C30.9397 72.3314 31.6907 72.4415 32.5172 72.4415C33.3436 72.4415 34.1009 72.3346 34.7733 72.1176C35.4521 71.9007 36.0271 71.58 36.5047 71.1523C36.9761 70.7279 37.3469 70.1997 37.6014 69.5677C37.8622 68.9389 37.991 68.2031 37.991 67.3636C37.991 66.5241 37.8622 65.801 37.6014 65.1659C37.3469 64.5276 36.9761 63.9931 36.5047 63.5529V63.5561Z" fill="#3C44E3"/>
<path d="M1.41466 60.9527V80H254.323C257.795 80 260.607 77.186 260.607 73.7117V54.6644H7.69926C4.22702 54.6644 1.41466 57.4784 1.41466 60.9527ZM19.0932 72.9571C17.9023 73.674 16.3783 74.0292 14.5212 74.0292C13.3963 74.0292 12.3876 73.8783 11.4983 73.5796C10.6122 73.2809 9.86116 72.8502 9.25156 72.2937C8.63567 71.734 8.1706 71.0549 7.84381 70.25C7.52015 69.4451 7.35675 68.5364 7.35675 67.5303V67.2096C7.35675 66.1626 7.52015 65.235 7.84381 64.4176C8.16746 63.6001 8.63567 62.9146 9.25156 62.355C9.86116 61.7953 10.6122 61.3709 11.4983 61.0753C12.3876 60.7829 13.3963 60.6351 14.5212 60.6351C15.4796 60.6351 16.3563 60.7326 17.1419 60.9244C17.9243 61.1162 18.6125 61.4054 19.1938 61.7985C19.7751 62.1915 20.2496 62.6788 20.6235 63.2668C20.9975 63.8547 21.2426 64.5433 21.362 65.3356H19.42C19.2975 64.8672 19.0964 64.4396 18.8167 64.0497C18.5371 63.6598 18.1883 63.3234 17.7735 63.0404C17.3587 62.7574 16.8779 62.5436 16.3343 62.3927C15.7875 62.2418 15.1842 62.1663 14.5243 62.1663C13.6476 62.1663 12.8809 62.2952 12.2242 62.5531C11.5611 62.8109 11.0081 63.1693 10.5682 63.6252C10.1251 64.0811 9.79203 64.6314 9.56893 65.2728C9.34897 65.9142 9.23585 66.6216 9.23585 67.3888C9.23585 68.156 9.34897 68.7974 9.56893 69.4231C9.78889 70.0487 10.1251 70.5864 10.5682 71.0454C11.0112 71.5013 11.5611 71.8598 12.2242 72.1145C12.8841 72.3723 13.6508 72.5043 14.5243 72.5043C15.8567 72.5043 16.9596 72.2497 17.83 71.7403C18.7005 71.2278 19.2504 70.5267 19.4923 69.6243H21.3997C21.0509 71.1335 20.2842 72.2497 19.0995 72.9634L19.0932 72.9571ZM39.8576 67.5271C39.823 68.6433 39.6219 69.6117 39.2574 70.4386C38.8897 71.2592 38.387 71.9352 37.7428 72.4635C37.1049 72.9917 36.3413 73.3847 35.4615 73.6457C34.5754 73.9035 33.5981 74.0324 32.5172 74.0324C31.4362 74.0324 30.4558 73.9035 29.576 73.6457C28.6898 73.3878 27.9294 72.9917 27.2884 72.4572C26.6442 71.9195 26.1414 71.2467 25.7738 70.4292C25.4093 69.6117 25.2082 68.6464 25.1736 67.5303V67.2096C25.2082 66.0682 25.4093 65.0841 25.7738 64.2541C26.1414 63.424 26.6442 62.7449 27.2884 62.2104C27.9263 61.6758 28.6898 61.2797 29.576 61.0219C30.4558 60.764 31.4393 60.6351 32.5172 60.6351C33.595 60.6351 34.5785 60.7703 35.4615 61.0407C36.3413 61.308 37.1049 61.7136 37.7428 62.2575C38.387 62.7952 38.8897 63.4774 39.2574 64.2981C39.6219 65.1218 39.823 66.0902 39.8576 67.2096V67.5303V67.5271ZM57.1748 73.6331H54.0765L45.9442 62.1978V73.6331H44.1782V61.0281H47.2577L55.4308 72.4635V61.0281H57.1748V73.6331ZM64.1476 65.3577C64.3204 65.6029 64.5938 65.8041 64.9646 65.9519C65.3385 66.1028 65.8161 66.216 66.3943 66.2946C66.9788 66.3732 67.6638 66.4361 68.4557 66.4833C69.5617 66.543 70.5013 66.6436 71.2837 66.782C72.0599 66.9203 72.704 67.1278 73.21 67.4014C73.7127 67.678 74.0804 68.0396 74.316 68.4798C74.5486 68.9263 74.6648 69.4828 74.6648 70.1556C74.6648 70.7216 74.5517 71.2404 74.3318 71.712C74.1118 72.1868 73.741 72.5955 73.2257 72.9382C72.7103 73.2809 72.0316 73.5482 71.1863 73.74C70.341 73.9318 69.2884 74.0292 68.0252 74.0292C66.7619 74.0292 65.7376 73.8846 64.9426 73.5954C64.1413 73.3061 63.5128 72.9382 63.0509 72.4886C62.589 72.039 62.259 71.5422 62.0611 70.9951C61.8631 70.448 61.7406 69.9104 61.6934 69.3822H63.6008C63.6731 70.3569 64.0816 71.1083 64.8357 71.6428C65.5836 72.1773 66.6645 72.4446 68.0817 72.4446C69.4989 72.4446 70.7024 72.2717 71.5477 71.9289C72.393 71.5862 72.8203 71.0392 72.836 70.2814C72.8455 69.5268 72.4715 68.986 71.7205 68.6622C70.9632 68.3383 69.788 68.1277 68.1886 68.0302C67.1359 67.9956 66.2215 67.9233 65.4453 67.8164C64.6723 67.7095 64.0344 67.5271 63.5285 67.2756C63.0258 67.0209 62.6518 66.6813 62.413 66.2506C62.1773 65.8167 62.0548 65.2539 62.0548 64.559C62.0548 64.0434 62.1773 63.5498 62.413 63.0813C62.655 62.6128 63.0383 62.2041 63.5599 61.8488C64.0816 61.4935 64.7509 61.2105 65.5647 61.003C66.3786 60.7955 67.3653 60.6886 68.5154 60.6886C69.7534 60.6886 70.759 60.8269 71.5288 61.1005C72.305 61.3771 72.9146 61.7293 73.3671 62.1632C73.8133 62.5971 74.1338 63.0813 74.3223 63.6221C74.5046 64.1629 74.6208 64.6974 74.6711 65.2225H72.7637C72.7135 64.6597 72.5784 64.188 72.3521 63.8107C72.1196 63.4334 71.8211 63.1284 71.444 62.9021C71.0669 62.6757 70.6238 62.5122 70.1211 62.4179C69.6183 62.3204 69.0653 62.2732 68.4651 62.2732C67.7801 62.2732 67.161 62.3141 66.6017 62.399C66.0455 62.4839 65.5647 62.6128 65.1657 62.7889C64.7635 62.9618 64.4492 63.185 64.2261 63.4523C64.0062 63.7227 63.8962 64.0497 63.8962 64.4333C63.8962 64.8169 63.981 65.1156 64.157 65.3608L64.1476 65.3577ZM91.2405 62.6128H85.6252V73.6331H83.8592V62.6128H78.2628V61.0281H91.2373V62.6128H91.2405ZM107.508 68.5553C107.436 70.4386 106.889 71.8158 105.871 72.6867C104.853 73.5576 103.345 73.9915 101.352 73.9915C99.3602 73.9915 97.8519 73.5513 96.8275 72.6678C95.7999 71.7875 95.2595 70.4135 95.1998 68.5553V61.0281H96.9595V67.7252C96.9595 68.4106 97.0097 69.0395 97.1072 69.618C97.2014 70.1934 97.4025 70.687 97.7073 71.1052C98.0121 71.5171 98.4489 71.8378 99.0208 72.0673C99.5927 72.2968 100.363 72.41 101.337 72.41C102.311 72.41 103.081 72.3 103.668 72.0767C104.25 71.8566 104.69 71.5391 105.001 71.1303C105.305 70.7247 105.507 70.2342 105.601 69.6652C105.698 69.0929 105.742 68.4609 105.742 67.7661V61.0313H107.508V68.5584V68.5553ZM123.562 72.9571C122.371 73.674 120.847 74.0292 118.99 74.0292C117.865 74.0292 116.857 73.8783 115.967 73.5796C115.081 73.2809 114.33 72.8502 113.72 72.2937C113.105 71.734 112.64 71.0549 112.313 70.25C111.989 69.4451 111.826 68.5364 111.826 67.5303V67.2096C111.826 66.1626 111.989 65.235 112.313 64.4176C112.636 63.6001 113.105 62.9146 113.72 62.355C114.33 61.7953 115.081 61.3709 115.967 61.0753C116.857 60.7829 117.865 60.6351 118.99 60.6351C119.949 60.6351 120.825 60.7326 121.611 60.9244C122.393 61.1162 123.081 61.4054 123.663 61.7985C124.244 62.1915 124.719 62.6788 125.092 63.2668C125.466 63.8547 125.712 64.5433 125.831 65.3356H123.889C123.766 64.8672 123.565 64.4396 123.286 64.0497C123.006 63.6598 122.657 63.3234 122.242 63.0404C121.831 62.7574 121.347 62.5436 120.803 62.3927C120.256 62.2418 119.653 62.1663 118.993 62.1663C118.117 62.1663 117.35 62.2952 116.693 62.5531C116.03 62.8109 115.477 63.1693 115.037 63.6252C114.594 64.0811 114.261 64.6314 114.038 65.2728C113.818 65.9142 113.705 66.6216 113.705 67.3888C113.705 68.156 113.818 68.7974 114.038 69.4231C114.258 70.0487 114.594 70.5864 115.037 71.0454C115.48 71.5013 116.03 71.8598 116.693 72.1145C117.353 72.3723 118.12 72.5043 118.993 72.5043C120.326 72.5043 121.429 72.2497 122.299 71.7403C123.169 71.2278 123.719 70.5267 123.961 69.6243H125.869C125.52 71.1335 124.753 72.2497 123.568 72.9634L123.562 72.9571ZM142.441 62.6128H136.826V73.6331H135.06V62.6128H129.463V61.0281H142.438V62.6128H142.441ZM158.184 62.6128H153.219V72.0484H158.184V73.6331H146.576V72.0484H151.453V62.6128H146.576V61.0281H158.184V62.6128ZM177.006 67.5271C176.972 68.6433 176.771 69.6117 176.406 70.4386C176.039 71.2592 175.536 71.9352 174.892 72.4635C174.254 72.9917 173.49 73.3847 172.61 73.6457C171.724 73.9035 170.747 74.0324 169.666 74.0324C168.585 74.0324 167.605 73.9035 166.725 73.6457C165.839 73.3878 165.078 72.9917 164.437 72.4572C163.793 71.9195 163.29 71.2467 162.923 70.4292C162.558 69.6117 162.357 68.6464 162.322 67.5303V67.2096C162.357 66.0682 162.558 65.0841 162.923 64.2541C163.29 63.424 163.793 62.7449 164.437 62.2104C165.075 61.6758 165.839 61.2797 166.725 61.0219C167.605 60.764 168.588 60.6351 169.666 60.6351C170.744 60.6351 171.727 60.7703 172.61 61.0407C173.49 61.308 174.254 61.7136 174.892 62.2575C175.536 62.7952 176.039 63.4774 176.406 64.2981C176.771 65.1218 176.972 66.0902 177.006 67.2096V67.5303V67.5271ZM194.324 73.6331H191.225L183.093 62.1978V73.6331H181.327V61.0281H184.407L192.58 72.4635V61.0281H194.324V73.6331ZM221.209 73.6331H210.519V61.0281H212.285V72.0484H221.209V73.6331ZM237.603 62.6128H231.987V73.6331H230.221V62.6128H224.625V61.0281H237.599V62.6128H237.603ZM254.665 66.9895C254.665 68.1905 254.524 69.2092 254.241 70.0487C253.961 70.8914 253.547 71.5737 253.003 72.1019C252.459 72.6301 251.787 73.0168 250.992 73.2621C250.2 73.5073 249.295 73.6299 248.277 73.6299H241.741V61.025H247.356C247.922 61.025 248.491 61.0502 249.078 61.0973C249.66 61.1476 250.219 61.242 250.759 61.3866C251.3 61.5312 251.806 61.7356 252.28 61.9997C252.758 62.2638 253.17 62.6128 253.525 63.0467C253.88 63.4774 254.153 64.0088 254.36 64.6408C254.562 65.2696 254.665 66.0242 254.665 66.8983V66.9895Z" fill="#3C44E3"/>
</g>
<defs>
<clipPath id="clip0_19_4">
<rect width="260.377" height="80" fill="white" transform="translate(0.81134)"/>
</clipPath>
</defs>
</svg>
