<svg width="32" height="33" viewBox="0 0 32 33" fill="none" xmlns="http://www.w3.org/2000/svg">
<path d="M28.1493 6.61059C25.6427 3.64526 22.432 1.86392 18.6027 1.20259C18.0693 1.10659 17.536 1.06392 17.0027 0.989258H15.008C14.4213 1.07459 13.8347 1.12792 13.248 1.23459C9.87733 1.82126 6.99733 3.34659 4.608 5.76792C2.24 8.17859 0.778667 11.0586 0.213333 14.3866C0.117333 14.9199 0.0746667 15.4533 0 15.9866V17.9813C0.0853333 18.5786 0.138667 19.1759 0.245333 19.7733C0.906667 23.4319 2.64533 26.5039 5.42933 28.9786C7.84 31.1226 10.6667 32.4346 13.8667 32.8399C18.1973 33.3946 22.144 32.3813 25.6213 29.7359C29.0133 27.1653 31.104 23.7519 31.776 19.5493C32.544 14.7066 31.3173 10.3546 28.1493 6.61059ZM24.1173 24.2533C23.1147 24.2533 22.112 24.2533 21.12 24.2533C19.4133 24.2533 17.7067 24.2533 16 24.2533C15.4133 24.2533 14.8267 24.2533 14.24 24.2533C13.6533 24.2533 13.0667 24.2533 12.48 24.2533C10.9547 24.2533 9.42933 24.2533 7.91467 24.2746C6.54933 24.2959 5.664 23.2826 5.67467 22.0346C5.70667 18.6319 5.68533 15.2293 5.68533 11.8159C5.68533 10.8026 6.26133 10.0239 7.21067 9.78926C7.41333 9.73593 7.62667 9.72526 7.82933 9.72526C13.28 9.72526 18.72 9.72526 24.1707 9.72526C25.4827 9.72526 26.3147 10.5679 26.3147 11.8799C26.3147 15.2826 26.3147 18.6853 26.3147 22.0986C26.304 23.4319 25.4827 24.2533 24.1173 24.2533Z" fill="white"/>
<path d="M24.6507 12.5625C24.6507 15.7199 24.6507 18.8772 24.6507 22.0239C24.6507 22.5145 24.5654 22.5999 24.064 22.5999H7.9147C7.44536 22.5999 7.34937 22.5145 7.34937 22.0665C7.34937 18.8772 7.34937 15.6879 7.34937 12.5092C7.34937 12.4345 7.36003 12.3492 7.3707 12.2212C7.92536 12.6585 8.44803 13.0745 8.96003 13.4799C11.0934 15.1759 13.2267 16.8719 15.3707 18.5679C15.8294 18.9305 16.1707 18.9305 16.6294 18.5572C19.1574 16.5519 21.6854 14.5465 24.2134 12.5412C24.3307 12.4452 24.4587 12.3492 24.6294 12.2212C24.64 12.3705 24.6507 12.4665 24.6507 12.5625Z" fill="white"/>
<path d="M23.0186 11.4533C22.9439 11.496 22.8586 11.528 22.7839 11.5813C20.5973 13.3093 18.4106 15.048 16.2239 16.7867C16.0639 16.9147 15.9573 16.9467 15.7759 16.7973C13.5786 15.0373 11.3813 13.2987 9.17328 11.5493C9.11994 11.5067 9.07728 11.4533 8.99194 11.3787H22.9333C22.9653 11.4 22.9866 11.432 23.0186 11.4533Z" fill="white"/>
</svg>
