<svg width="32" height="32" viewBox="0 0 32 32" fill="none" xmlns="http://www.w3.org/2000/svg">
<g clip-path="url(#clip0_173_530)">
<path d="M27.7835 5.18195C25.4219 2.56008 22.4715 0.904614 18.9973 0.289147C13.728 -0.63992 9.06667 0.687013 5.104 4.29875C2.53227 6.64541 0.951467 9.57661 0.2912 12.9953C0.184533 13.5659 0.1344 14.1483 0.0576 14.7254C0.0426667 14.8321 0.0192 14.9462 0 15.0571V16.9323C0.0810667 17.5275 0.142933 18.1249 0.244267 18.7169C0.736046 21.7149 2.09467 24.5033 4.15253 26.7382C6.47274 29.3276 9.58653 31.0739 13.0059 31.7035C13.5861 31.8102 14.1792 31.8625 14.7669 31.9403C14.8683 31.9542 14.9696 31.9777 15.0699 31.9948H16.9461C17.5435 31.9158 18.1429 31.8529 18.7349 31.7505C21.7558 31.2554 24.5633 29.8795 26.8053 27.7953C29.6373 25.1894 31.3579 21.9659 31.8517 18.1515C32.4864 13.2267 31.1125 8.87155 27.7835 5.18195ZM24.1184 22.4001C23.5509 22.9643 23.0123 23.5627 22.2688 23.9147C21.3078 24.3899 20.2022 24.4825 19.1755 24.1739C16.3424 23.3537 13.9979 21.7398 11.9413 19.6737C10.3733 18.0982 9.09227 16.3254 8.21333 14.2795C7.8688 13.4742 7.54773 12.6614 7.57973 11.3857C7.60747 10.5953 8.04267 9.60008 8.85333 8.76915C9.13707 8.47795 9.42187 8.18888 9.7152 7.90728C10.0981 7.53928 10.4523 7.53821 10.832 7.91475C11.7778 8.85341 12.7204 9.79599 13.6597 10.7425C14.0469 11.1329 14.0416 11.4891 13.6512 11.8817C13.1317 12.4075 12.6037 12.9259 12.0843 13.4518C11.4368 14.1057 11.3909 14.8107 11.9413 15.5499C13.2495 17.3074 14.8236 18.8502 16.6069 20.1227C17.3045 20.6219 18.032 20.5718 18.6336 19.9691C19.1435 19.4614 19.6416 18.9441 20.1493 18.4353C20.5632 18.0193 20.9205 18.0161 21.3333 18.4278C22.262 19.3523 23.189 20.2806 24.1141 21.2129C24.5397 21.6331 24.5387 21.9734 24.1184 22.4001Z" fill="white"/>
</g>
<defs>
<clipPath id="clip0_173_530">
<rect width="32" height="31.9947" fill="white"/>
</clipPath>
</defs>
</svg>
