<svg width="24" height="24" viewBox="0 0 24 24" fill="none" xmlns="http://www.w3.org/2000/svg">
<path d="M20.8376 3.88646C19.0664 1.92006 16.8536 0.67846 14.248 0.21686C10.296 -0.47994 6.8 0.51526 3.828 3.22406C1.8992 4.98406 0.7136 7.18246 0.2184 9.74646C0.1384 10.1745 0.1008 10.6113 0.0432 11.0441C0.032 11.1241 0.0144 11.2097 0 11.2929V12.6993C0.0608 13.1457 0.1072 13.5937 0.1832 14.0377C0.552034 16.2861 1.571 18.3775 3.1144 20.0537C4.85456 21.9957 7.1899 23.3055 9.7544 23.7777C10.1896 23.8577 10.6344 23.8969 11.0752 23.9553C11.1512 23.9657 11.2272 23.9833 11.3024 23.9961H12.7096C13.1576 23.9369 13.6072 23.8897 14.0512 23.8129C16.3169 23.4416 18.4225 22.4096 20.104 20.8465C22.228 18.8921 23.5184 16.4745 23.8888 13.6137C24.3648 9.92006 23.3344 6.65366 20.8376 3.88646ZM18.0888 16.8001C17.6632 17.2233 17.2592 17.6721 16.7016 17.9361C15.9808 18.2924 15.1516 18.3619 14.3816 18.1305C12.2568 17.5153 10.4984 16.3049 8.956 14.7553C7.78 13.5737 6.8192 12.2441 6.16 10.7097C5.9016 10.1057 5.6608 9.49606 5.6848 8.53926C5.7056 7.94646 6.032 7.20006 6.64 6.57686C6.8528 6.35846 7.0664 6.14166 7.2864 5.93046C7.5736 5.65446 7.8392 5.65366 8.124 5.93606C8.83333 6.64006 9.54027 7.34699 10.2448 8.05686C10.5352 8.34966 10.5312 8.61686 10.2384 8.91126C9.8488 9.30566 9.4528 9.69446 9.0632 10.0889C8.5776 10.5793 8.5432 11.1081 8.956 11.6625C9.93712 12.9805 11.1177 14.1376 12.4552 15.0921C12.9784 15.4665 13.524 15.4289 13.9752 14.9769C14.3576 14.5961 14.7312 14.2081 15.112 13.8265C15.4224 13.5145 15.6904 13.5121 16 13.8209C16.6965 14.5142 17.3917 15.2105 18.0856 15.9097C18.4048 16.2249 18.404 16.4801 18.0888 16.8001Z" fill="#3C44E3"/>
</svg>
