<svg width="19" height="23" viewBox="0 0 19 23" fill="none" xmlns="http://www.w3.org/2000/svg">
<path d="M13.02 11.79C12.4 12.03 11.89 12.23 11.49 12.39C11.09 12.55 10.78 12.74 10.56 12.96C10.36 13.18 10.22 13.47 10.14 13.83C10.06 14.17 10.02 14.65 10.02 15.27H7.11C7.11 14.29 7.16 13.49 7.26 12.87C7.38 12.25 7.62 11.73 7.98 11.31C8.34 10.89 8.85 10.53 9.51 10.23C10.17 9.93 11.05 9.62 12.15 9.3C12.71 9.14 13.17 8.95 13.53 8.73C13.89 8.51 14.17 8.27 14.37 8.01C14.59 7.75 14.74 7.48 14.82 7.2C14.92 6.92 14.97 6.63 14.97 6.33C14.97 5.87 14.89 5.42 14.73 4.98C14.57 4.54 14.28 4.15 13.86 3.81C13.46 3.45 12.91 3.16 12.21 2.94C11.53 2.72 10.65 2.61 9.57 2.61C8.29 2.61 7.22 2.73 6.36 2.97C5.52 3.21 4.85 3.57 4.35 4.05C3.85 4.53 3.5 5.13 3.3 5.85C3.1 6.55 3 7.37 3 8.31H0C0 7.63 0.0300002 6.96 0.0900002 6.3C0.17 5.62 0.32 4.97 0.54 4.35C0.78 3.73 1.11 3.16 1.53 2.64C1.95 2.1 2.5 1.64 3.18 1.26C3.88 0.86 4.73 0.550001 5.73 0.330001C6.75 0.11 7.95 0 9.33 0C10.95 0 12.31 0.18 13.41 0.54C14.53 0.880001 15.43 1.34 16.11 1.92C16.79 2.5 17.28 3.16 17.58 3.9C17.88 4.64 18.03 5.4 18.03 6.18C18.07 6.72 18.03 7.26 17.91 7.8C17.81 8.34 17.57 8.85 17.19 9.33C16.83 9.81 16.31 10.26 15.63 10.68C14.97 11.1 14.1 11.47 13.02 11.79ZM10.77 17.82V22.11H6.45V17.82H10.77Z" fill="white"/>
</svg>
